# Blender v2.76 (sub 0) OBJ File: 'satelite1.blend'
# www.blender.org
mtllib satelite1.mtl
o Cylinder
v 4.027009 0.055926 -1.041371
v -3.995343 -0.060243 -0.985319
v 4.024368 0.247554 -1.022289
v -3.997984 0.131385 -0.966236
v 4.022099 0.431900 -0.964998
v -4.000254 0.315731 -0.908945
v 4.020289 -0.157152 -0.871699
v -4.002063 -0.273321 -0.815646
v 4.019009 -0.008069 -0.745979
v -4.003344 -0.124238 -0.689926
v 4.018307 0.873420 -0.592668
v -4.004045 0.757251 -0.536615
v 4.018210 0.964543 -0.417658
v -4.004142 0.848374 -0.361605
v 4.018722 1.020832 -0.227675
v -4.003630 0.904663 -0.171622
v 4.019824 1.040122 -0.030019
v -4.002528 0.923953 0.026034
v 4.021472 1.021674 0.167713
v -4.000880 0.905505 0.223766
v 4.023605 0.966195 0.357923
v -3.998747 0.850026 0.413976
v 4.026139 0.875818 0.533301
v -3.996213 0.759649 0.589354
v 4.028977 0.754016 0.687108
v -3.993375 0.637847 0.743160
v 4.032011 0.605470 0.813432
v -3.990341 0.489301 0.869485
v 4.035123 0.435888 0.907420
v -3.987229 0.319719 0.963473
v 4.038195 0.251787 0.965459
v -3.984157 0.135618 1.021512
v 4.041107 0.060243 0.985319
v -3.981245 -0.055926 1.041371
v 4.043749 -0.131385 0.966236
v -3.978603 -0.247554 1.022289
v 4.046018 -0.315731 0.908945
v -3.976334 -0.431900 0.964997
v 4.047828 -0.485712 0.815646
v -3.974524 -0.601881 0.871699
v 4.049108 -0.634795 0.689925
v -3.973244 -0.750964 0.745978
v 4.049810 -0.757251 0.536614
v -3.972542 -0.873420 0.592667
v 4.049907 -0.848374 0.361604
v -3.972445 -0.964543 0.417657
v 4.049395 -0.904663 0.171621
v -3.972958 -1.020832 0.227674
v 4.048293 -0.923953 -0.026035
v -3.974059 -1.040122 0.030018
v 4.046644 -0.905505 -0.223767
v -3.975708 -1.021674 -0.167714
v 4.044512 -0.850026 -0.413977
v -3.977840 -0.966195 -0.357924
v 4.041977 -0.759649 -0.589355
v -3.980375 -0.875818 -0.533302
v 4.039139 -0.637846 -0.743161
v -3.983213 -0.754015 -0.687109
v 4.036106 -0.489300 -0.869486
v -3.986247 -0.605469 -0.813433
v 4.032993 -0.319718 -0.963473
v -3.989359 -0.435887 -0.907421
v 4.029922 -0.135617 -1.021512
v -3.992430 -0.251786 -0.965459
v -3.997984 0.131385 -0.966236
v -3.995343 -0.060243 -0.985319
v -4.000254 0.315731 -0.908945
v -3.793631 0.610497 -1.091105
v -3.794911 0.759580 -0.965384
v -4.004045 0.757251 -0.536615
v -4.004142 0.848374 -0.361605
v -4.003630 0.904663 -0.171622
v -4.002528 0.923953 0.026034
v -4.000880 0.905505 0.223766
v -3.998747 0.850026 0.413976
v -3.996213 0.759649 0.589354
v -3.843330 0.841169 1.213274
v -3.840296 0.692623 1.339599
v -3.987229 0.319719 0.963473
v -3.984157 0.135618 1.021512
v -3.981245 -0.055926 1.041371
v -3.978603 -0.247554 1.022289
v -3.976334 -0.431900 0.964997
v -3.974524 -0.601881 0.871699
v -3.596012 -1.344301 1.408015
v -3.595310 -1.466756 1.254704
v -3.972445 -0.964543 0.417657
v -3.972958 -1.020832 0.227674
v -3.974059 -1.040122 0.030018
v -3.975708 -1.021674 -0.167714
v -3.977840 -0.966195 -0.357924
v -3.848270 -1.439844 -1.050392
v -3.851108 -1.318042 -1.204198
v -3.986247 -0.605469 -0.813433
v -3.989359 -0.435887 -0.907421
v -3.992430 -0.251786 -0.965459
v -5.586684 0.131385 -0.966236
v -5.584043 -0.060243 -0.985319
v -5.588953 0.315731 -0.908945
v -5.382330 0.610497 -1.091105
v -5.383611 0.759580 -0.965384
v -5.592745 0.757251 -0.536615
v -5.592842 0.848374 -0.361605
v -5.592330 0.904663 -0.171622
v -5.591228 0.923953 0.026034
v -5.589579 0.905505 0.223766
v -5.587447 0.850026 0.413976
v -5.584913 0.759649 0.589354
v -5.432030 0.841169 1.213274
v -5.428996 0.692623 1.339599
v -5.575928 0.319719 0.963473
v -5.572857 0.135618 1.021512
v -5.569944 -0.055926 1.041371
v -5.567303 -0.247554 1.022289
v -5.565034 -0.431900 0.964998
v -5.563224 -0.601881 0.871699
v -5.184711 -1.344300 1.408015
v -5.184009 -1.466756 1.254704
v -5.561145 -0.964543 0.417657
v -5.561657 -1.020832 0.227674
v -5.562759 -1.040122 0.030018
v -5.564408 -1.021674 -0.167714
v -5.566540 -0.966195 -0.357924
v -5.436969 -1.439844 -1.050392
v -5.439808 -1.318042 -1.204198
v -5.574946 -0.605469 -0.813433
v -5.578059 -0.435887 -0.907421
v -5.581130 -0.251786 -0.965459
v 4.027009 0.055926 -1.041371
v 4.024368 0.247554 -1.022289
v 4.022099 0.431900 -0.964998
v 4.020289 0.601881 -0.871699
v 4.019009 0.750964 -0.745979
v 4.018307 0.873420 -0.592668
v 4.018210 0.964543 -0.417658
v 4.018722 1.020832 -0.227675
v 4.019824 1.040122 -0.030019
v 4.021472 1.021674 0.167713
v 4.023605 0.966195 0.357923
v 4.026139 0.875818 0.533301
v 4.028977 0.754016 0.687108
v 4.032011 0.605470 0.813432
v 4.035123 0.435888 0.907420
v 4.038195 0.251787 0.965459
v 4.041107 0.060243 0.985319
v 4.043749 -0.131385 0.966236
v 4.046018 -0.315731 0.908945
v 4.047828 -0.485712 0.815646
v 4.049108 -0.634795 0.689925
v 4.049810 -0.757251 0.536614
v 4.049907 -0.848374 0.361604
v 4.049395 -0.904663 0.171621
v 4.048293 -0.923953 -0.026035
v 4.046644 -0.905505 -0.223767
v 4.044512 -0.850026 -0.413977
v 4.041977 -0.759649 -0.589355
v 4.039139 -0.637846 -0.743161
v 4.036106 -0.489300 -0.869486
v 4.032993 -0.319718 -0.963473
v 4.029922 -0.135617 -1.021512
v 5.884257 0.055926 -1.041371
v 5.881616 0.247554 -1.022289
v 5.879346 0.431900 -0.964998
v 5.877537 0.601881 -0.871699
v 5.876256 0.750964 -0.745979
v 5.875555 0.873420 -0.592668
v 5.875458 0.964543 -0.417658
v 5.875970 1.020832 -0.227675
v 5.877072 1.040122 -0.030019
v 5.878720 1.021674 0.167713
v 5.880853 0.966195 0.357923
v 5.883387 0.875818 0.533301
v 5.886225 0.754016 0.687108
v 5.889259 0.605470 0.813432
v 5.892371 0.435888 0.907420
v 5.895443 0.251787 0.965459
v 5.898355 0.060243 0.985319
v 5.900997 -0.131385 0.966236
v 5.903266 -0.315731 0.908945
v 5.905076 -0.485712 0.815646
v 5.906356 -0.634795 0.689925
v 5.907058 -0.757251 0.536614
v 5.907155 -0.848374 0.361604
v 5.906642 -0.904663 0.171621
v 5.905540 -0.923953 -0.026035
v 5.903892 -0.905505 -0.223767
v 5.901760 -0.850026 -0.413977
v 5.899225 -0.759649 -0.589355
v 5.896387 -0.637846 -0.743161
v 5.893353 -0.489300 -0.869486
v 5.890241 -0.319718 -0.963473
v 5.887169 -0.135617 -1.021512
v -3.989359 -0.435887 -5.335591
v 4.032993 -0.319718 -5.391644
v 4.029922 -0.135617 -5.449682
v -3.992430 -0.251786 -5.393629
v -3.978603 -0.247554 5.567955
v 4.043749 -0.131385 5.511903
v 4.046018 -0.315731 5.454611
v -3.976334 -0.431900 5.510664
vn -0.008400 0.099000 -0.995100
vn -0.011000 0.296600 -0.954900
vn 0.004600 0.156400 0.987700
vn -0.014700 0.644500 -0.764400
vn -0.009400 0.171300 -0.985200
vn -0.016100 0.886900 -0.461800
vn -0.015900 0.958700 -0.284000
vn -0.015100 0.995200 -0.097000
vn -0.013800 0.995600 0.093000
vn -0.011900 0.959900 0.280100
vn -0.009700 0.888800 0.458200
vn -0.007000 0.783900 0.620900
vn -0.004100 0.647800 0.761800
vn -0.000900 0.484700 0.874700
vn 0.002300 0.300700 0.953700
vn 0.005500 0.103200 0.994600
vn 0.008400 -0.099000 0.995100
vn -0.014500 0.999900 0.000000
vn 0.013100 -0.481000 0.876600
vn 0.014700 -0.644500 0.764400
vn 0.015700 -0.781200 0.624100
vn 0.016100 -0.886900 0.461800
vn 0.015900 -0.958700 0.284000
vn 0.015100 -0.995200 0.097000
vn 0.013800 -0.995600 -0.093000
vn 0.011900 -0.959900 -0.280100
vn 0.009700 -0.888800 -0.458200
vn 0.007000 -0.783900 -0.620900
vn 0.004100 -0.647800 -0.761800
vn 0.000900 -0.484700 -0.874700
vn 0.923400 -0.383800 0.006300
vn -0.005500 -0.103200 -0.994600
vn 0.999900 0.016700 0.000000
vn -0.088900 -0.996000 0.002600
vn -0.000000 -0.995300 0.097100
vn -0.447100 0.894500 -0.003700
vn -0.003400 1.000000 0.002400
vn -0.126000 -0.992000 -0.007700
vn 0.910700 0.366600 -0.190400
vn 0.456100 0.889900 -0.001200
vn 0.004800 1.000000 -0.004000
vn 0.974800 0.223200 0.000200
vn 0.201200 -0.979500 -0.010600
vn 0.403600 0.914900 0.003800
vn -0.001000 1.000000 0.001600
vn 0.959600 -0.122700 -0.253200
vn 0.548300 0.836300 0.000000
vn -0.010900 -0.999900 0.005400
vn 0.004000 -1.000000 -0.000100
vn 0.996300 -0.085800 0.000100
vn 0.543300 0.838700 0.037200
vn 0.985100 0.143300 0.095300
vn 0.985400 0.121500 0.119200
vn -0.229200 -0.973400 0.001300
vn -0.203400 0.975900 0.079000
vn -0.027300 0.999600 -0.000900
vn -0.437100 -0.899400 -0.000900
vn 0.884300 -0.466900 -0.002600
vn 0.918400 0.311200 -0.244400
vn -0.065700 -0.997800 -0.004300
vn -0.037900 0.999300 -0.000700
vn 0.957300 -0.175700 -0.229600
vn 0.965100 -0.163900 0.204200
vn 0.283900 -0.958800 0.008000
vn 0.896400 -0.075300 0.436800
vn -0.944400 0.328700 -0.001400
vn -0.999900 -0.014500 0.007000
vn 0.000000 -0.825400 0.564600
vn -0.000000 -0.296800 0.954900
vn 0.000000 0.995700 0.092900
vn -0.000000 -0.525700 -0.850700
vn 0.000000 -0.783900 -0.620800
vn 0.000000 -0.300700 -0.953700
vn -0.000000 0.644700 -0.764500
vn 0.000000 -0.857500 -0.514500
vn -0.000000 0.647800 0.761800
vn 0.000000 0.958800 -0.284100
vn 0.000000 -0.103100 -0.994700
vn -0.000000 -0.960000 -0.280000
vn -0.000000 -0.099100 0.995100
vn -0.000000 0.995300 -0.097100
vn -0.000000 0.888900 0.458100
vn -0.000000 0.296800 -0.954900
vn -0.000000 -0.484800 -0.874600
vn -0.000000 -0.781300 0.624100
vn 0.000000 0.991600 -0.129600
vn -0.000000 0.300700 0.953700
vn 0.000000 0.887000 -0.461800
vn -0.000000 0.103100 0.994700
vn 0.000000 -0.995700 -0.092900
vn -0.000000 0.960000 0.280000
vn 0.000000 0.099100 -0.995100
vn 0.000000 -0.481200 0.876600
vn -0.000000 0.480800 -0.876800
vn -0.000000 0.585600 0.810600
vn -0.000000 1.000000 0.005400
vn 0.000000 -0.958800 0.284100
vn -0.000000 -0.710100 0.704100
vn 0.000000 -0.647800 -0.761800
vn -0.863600 0.493100 -0.104700
vn 0.051800 -0.998700 -0.003900
vn -0.551700 0.834000 0.000800
vn 0.002500 1.000000 0.003800
vn 0.295600 0.955300 0.000300
vn 0.020800 0.999800 0.000800
vn -0.998700 -0.051600 0.000100
vn 0.995200 0.097800 0.009500
vn -0.068800 0.997600 -0.000100
vn 0.008600 0.999900 -0.013500
vn 0.006800 1.000000 -0.000100
vn -0.218100 0.975900 -0.000300
vn -0.999800 0.000000 -0.019400
vn -0.999900 0.000000 -0.010200
vn 0.515500 0.856900 -0.004600
vn -0.281800 -0.959400 -0.007000
vn 0.820200 0.572100 -0.000700
vn -0.313100 -0.949700 0.008000
vn 0.012600 0.999900 0.003500
vn 0.012900 0.999900 0.002500
vn -0.001500 1.000000 -0.001900
vn -0.870900 0.490000 0.039200
vn -0.195600 0.980700 0.000900
vn -0.567200 0.823600 0.001300
vn -0.010600 -0.999900 0.000900
vn 0.031400 0.999500 0.004200
vn 0.000200 -1.000000 0.004800
vn 0.987200 0.159400 0.002100
vn 0.994000 -0.109500 -0.000500
vn 0.941100 0.338100 0.000200
vn -0.014900 0.999900 -0.003500
vn 0.999900 0.014500 -0.007000
vn 0.000000 -0.644700 0.764500
vn -0.000000 0.484800 0.874600
vn 0.000000 0.781300 -0.624100
vn -0.000000 -0.888900 -0.458100
vn 0.000000 0.481200 -0.876600
vn -0.000000 -0.887000 0.461800
vn 0.000000 0.784000 0.620800
vn -0.002300 -0.300700 -0.953700
vn -0.999900 -0.016700 -0.000000
vn 0.014500 -0.999900 -0.000000
vn 0.011000 -0.296600 0.954900
vn 0.999900 0.012300 0.000000
vn -0.999900 -0.012300 -0.000000
vn 0.983700 0.165300 0.071000
vn 0.118800 -0.992400 0.031700
vn -0.178600 0.983400 0.032400
vn -0.545400 -0.129500 -0.828100
vn -0.844200 0.532800 -0.059000
vn 0.920500 0.256400 -0.294700
vn 0.951000 -0.233600 -0.202500
vn -0.001900 -0.995500 0.094700
vn -0.986400 -0.137400 -0.090600
vn -0.846200 0.339200 -0.410900
vn -0.924100 -0.300700 0.235900
vn -0.963000 0.162900 0.214700
vn -0.646200 0.763100 -0.001800
vn -1.000000 -0.000000 -0.004600
vn 0.999900 0.014400 -0.007000
usemtl None
s off
f 2//1 4//1 3//1
f 4//2 6//2 5//2
f 6//3 8//3 7//3
f 8//4 10//4 9//4
f 9//5 10//5 12//5
f 12//6 14//6 13//6
f 14//7 16//7 15//7
f 16//8 18//8 17//8
f 18//9 20//9 19//9
f 20//10 22//10 21//10
f 22//11 24//11 23//11
f 24//12 26//12 25//12
f 26//13 28//13 27//13
f 28//14 30//14 29//14
f 30//15 32//15 31//15
f 32//16 34//16 33//16
f 34//17 36//17 35//17
f 36//18 197//18 198//18
f 38//19 40//19 39//19
f 40//20 42//20 41//20
f 42//21 44//21 43//21
f 44//22 46//22 45//22
f 46//23 48//23 47//23
f 48//24 50//24 49//24
f 50//25 52//25 51//25
f 52//26 54//26 53//26
f 54//27 56//27 55//27
f 56//28 58//28 57//28
f 58//29 60//29 59//29
f 60//30 62//30 61//30
f 2//31 64//31 96//31
f 64//32 2//32 1//32
f 63//33 61//33 194//33
f 59//34 61//34 159//34
f 89//35 88//35 120//35
f 62//36 60//36 94//36
f 50//37 48//37 88//37
f 56//38 54//38 91//38
f 46//39 44//39 86//39
f 40//40 38//40 83//40
f 52//41 50//41 89//41
f 34//42 32//42 80//42
f 24//43 22//43 75//43
f 36//44 34//44 81//44
f 18//45 16//45 72//45
f 30//46 28//46 78//46
f 8//47 6//47 67//47
f 20//48 18//48 73//48
f 14//49 12//49 70//49
f 4//50 2//50 66//50
f 64//51 62//51 95//51
f 58//52 56//52 92//52
f 60//53 58//53 93//53
f 42//54 40//54 84//54
f 54//55 52//55 90//55
f 48//56 46//56 87//56
f 38//57 36//57 82//57
f 32//58 30//58 79//58
f 42//59 85//59 86//59
f 26//60 24//60 76//60
f 16//61 14//61 71//61
f 28//62 26//62 77//62
f 10//63 8//63 68//63
f 22//64 20//64 74//64
f 12//65 10//65 69//65
f 6//66 4//66 65//66
f 114//67 106//67 104//67
f 91//68 123//68 124//68
f 82//69 114//69 115//69
f 73//70 105//70 106//70
f 67//71 99//71 100//71
f 93//72 92//72 124//72
f 96//73 95//73 127//73
f 69//74 68//74 100//74
f 87//75 86//75 118//75
f 77//76 109//76 110//76
f 71//77 103//77 104//77
f 66//78 96//78 128//78
f 91//79 90//79 122//79
f 81//80 113//80 114//80
f 72//81 104//81 105//81
f 75//82 107//82 108//82
f 67//83 65//83 97//83
f 95//84 94//84 126//84
f 85//85 117//85 118//85
f 76//86 108//86 109//86
f 79//87 111//87 112//87
f 71//88 70//88 102//88
f 80//89 112//89 113//89
f 90//90 89//90 121//90
f 74//91 106//91 107//91
f 65//92 66//92 98//92
f 83//93 115//93 116//93
f 94//94 93//94 125//94
f 84//95 116//95 117//95
f 70//96 69//96 101//96
f 88//97 87//97 119//97
f 79//98 78//98 110//98
f 157//99 158//99 190//99
f 53//100 55//100 156//100
f 55//101 57//101 157//101
f 37//102 39//102 148//102
f 49//103 51//103 154//103
f 43//104 45//104 151//104
f 21//105 23//105 140//105
f 33//106 35//106 146//106
f 27//107 29//107 143//107
f 39//108 41//108 149//108
f 17//109 19//109 138//109
f 11//110 13//110 135//110
f 23//111 25//111 141//111
f 5//112 7//112 132//112
f 9//113 133//113 132//113
f 1//114 3//114 130//114
f 61//115 63//115 160//115
f 63//116 1//116 129//116
f 57//117 59//117 158//117
f 51//118 53//118 155//118
f 45//119 47//119 152//119
f 47//120 49//120 153//120
f 29//121 31//121 144//121
f 41//122 43//122 150//122
f 35//123 37//123 147//123
f 13//124 15//124 136//124
f 25//125 27//125 142//125
f 19//126 21//126 139//126
f 31//127 33//127 145//127
f 9//128 11//128 134//128
f 3//129 5//129 131//129
f 15//130 17//130 137//130
f 176//131 184//131 192//131
f 149//132 181//132 180//132
f 151//97 152//97 184//97
f 143//133 175//133 174//133
f 133//134 134//134 166//134
f 152//35 153//35 185//35
f 147//69 179//69 178//69
f 138//70 170//70 169//70
f 155//135 156//135 188//135
f 131//136 132//136 164//136
f 156//72 157//72 189//72
f 159//73 160//73 192//73
f 142//76 174//76 173//76
f 132//74 133//74 165//74
f 151//137 183//137 182//137
f 136//77 168//77 167//77
f 160//78 129//78 161//78
f 137//81 169//81 168//81
f 154//79 155//79 187//79
f 146//80 178//80 177//80
f 130//83 131//83 163//83
f 140//82 172//82 171//82
f 158//84 159//84 191//84
f 150//85 182//85 181//85
f 141//138 173//138 172//138
f 144//87 176//87 175//87
f 134//88 135//88 167//88
f 153//90 154//90 186//90
f 145//89 177//89 176//89
f 129//92 130//92 162//92
f 148//93 180//93 179//93
f 139//91 171//91 170//91
f 193//139 196//139 195//139
f 64//140 196//140 193//140
f 63//18 195//18 196//18
f 61//141 62//141 193//141
f 197//142 200//142 199//142
f 35//143 198//143 199//143
f 36//144 38//144 200//144
f 38//141 37//141 199//141
f 1//1 2//1 3//1
f 3//2 4//2 5//2
f 5//3 6//3 7//3
f 7//4 8//4 9//4
f 11//5 9//5 12//5
f 11//6 12//6 13//6
f 13//7 14//7 15//7
f 15//8 16//8 17//8
f 17//9 18//9 19//9
f 19//10 20//10 21//10
f 21//11 22//11 23//11
f 23//12 24//12 25//12
f 25//13 26//13 27//13
f 27//14 28//14 29//14
f 29//15 30//15 31//15
f 31//16 32//16 33//16
f 33//17 34//17 35//17
f 35//18 36//18 198//18
f 37//19 38//19 39//19
f 39//20 40//20 41//20
f 41//21 42//21 43//21
f 43//22 44//22 45//22
f 45//23 46//23 47//23
f 47//24 48//24 49//24
f 49//25 50//25 51//25
f 51//26 52//26 53//26
f 53//27 54//27 55//27
f 55//28 56//28 57//28
f 57//29 58//29 59//29
f 59//30 60//30 61//30
f 66//31 2//31 96//31
f 63//32 64//32 1//32
f 195//33 63//33 194//33
f 158//34 59//34 159//34
f 121//35 89//35 120//35
f 95//36 62//36 94//36
f 89//37 50//37 88//37
f 92//145 56//145 91//145
f 87//146 46//146 86//146
f 84//40 40//40 83//40
f 90//41 52//41 89//41
f 81//42 34//42 80//42
f 76//43 24//43 75//43
f 82//44 36//44 81//44
f 73//45 18//45 72//45
f 79//147 30//147 78//147
f 68//148 8//148 67//148
f 74//48 20//48 73//48
f 71//49 14//49 70//49
f 65//50 4//50 66//50
f 96//51 64//51 95//51
f 93//52 58//52 92//52
f 94//149 60//149 93//149
f 85//150 42//150 84//150
f 91//55 54//55 90//55
f 88//56 48//56 87//56
f 83//57 38//57 82//57
f 80//58 32//58 79//58
f 44//59 42//59 86//59
f 77//151 26//151 76//151
f 72//61 16//61 71//61
f 78//62 28//62 77//62
f 69//63 10//63 68//63
f 75//64 22//64 74//64
f 70//152 12//152 69//152
f 67//66 6//66 65//66
f 99//67 97//67 98//67
f 98//67 128//67 126//67
f 126//153 125//153 124//153
f 128//67 127//67 126//67
f 101//154 100//154 99//154
f 99//67 98//67 123//67
f 126//153 124//153 123//153
f 123//67 122//67 121//67
f 121//67 120//67 99//67
f 119//155 118//155 116//155
f 116//67 115//67 104//67
f 118//155 117//155 116//155
f 123//67 121//67 99//67
f 98//67 126//67 123//67
f 102//154 101//154 99//154
f 104//67 103//67 102//67
f 106//67 105//67 104//67
f 108//67 107//67 106//67
f 110//156 109//156 111//156
f 113//67 112//67 111//67
f 111//156 109//156 108//156
f 108//67 106//67 114//67
f 104//67 102//67 119//67
f 99//67 120//67 119//67
f 119//67 116//67 104//67
f 114//67 113//67 111//67
f 111//67 108//67 114//67
f 102//67 99//67 119//67
f 115//67 114//67 104//67
f 92//68 91//68 124//68
f 83//69 82//69 115//69
f 74//70 73//70 106//70
f 68//71 67//71 100//71
f 125//72 93//72 124//72
f 128//73 96//73 127//73
f 101//74 69//74 100//74
f 119//75 87//75 118//75
f 78//76 77//76 110//76
f 72//77 71//77 104//77
f 98//78 66//78 128//78
f 123//79 91//79 122//79
f 82//80 81//80 114//80
f 73//81 72//81 105//81
f 76//82 75//82 108//82
f 99//83 67//83 97//83
f 127//84 95//84 126//84
f 86//85 85//85 118//85
f 77//86 76//86 109//86
f 80//87 79//87 112//87
f 103//88 71//88 102//88
f 81//89 80//89 113//89
f 122//90 90//90 121//90
f 75//91 74//91 107//91
f 97//92 65//92 98//92
f 84//93 83//93 116//93
f 126//94 94//94 125//94
f 85//95 84//95 117//95
f 102//96 70//96 101//96
f 120//97 88//97 119//97
f 111//98 79//98 110//98
f 189//99 157//99 190//99
f 155//100 53//100 156//100
f 156//101 55//101 157//101
f 147//102 37//102 148//102
f 153//103 49//103 154//103
f 150//104 43//104 151//104
f 139//105 21//105 140//105
f 145//106 33//106 146//106
f 142//107 27//107 143//107
f 148//108 39//108 149//108
f 137//109 17//109 138//109
f 134//110 11//110 135//110
f 140//111 23//111 141//111
f 131//157 5//157 132//157
f 7//113 9//113 132//113
f 129//114 1//114 130//114
f 159//115 61//115 160//115
f 160//116 63//116 129//116
f 157//117 57//117 158//117
f 154//118 51//118 155//118
f 151//119 45//119 152//119
f 152//120 47//120 153//120
f 143//121 29//121 144//121
f 149//122 41//122 150//122
f 146//123 35//123 147//123
f 135//124 13//124 136//124
f 141//125 25//125 142//125
f 138//126 19//126 139//126
f 144//127 31//127 145//127
f 133//158 9//158 134//158
f 130//129 3//129 131//129
f 136//130 15//130 137//130
f 192//131 161//131 162//131
f 162//131 163//131 164//131
f 164//131 165//131 168//131
f 166//131 167//131 168//131
f 168//131 169//131 170//131
f 170//131 171//131 168//131
f 172//131 173//131 176//131
f 174//131 175//131 176//131
f 176//131 177//131 178//131
f 178//131 179//131 180//131
f 180//131 181//131 184//131
f 182//131 183//131 184//131
f 184//159 185//159 186//159
f 186//131 187//131 188//131
f 188//131 189//131 192//131
f 190//131 191//131 192//131
f 192//131 162//131 164//131
f 165//131 166//131 168//131
f 168//131 171//131 172//131
f 173//131 174//131 176//131
f 176//131 178//131 184//131
f 181//131 182//131 184//131
f 184//131 186//131 192//131
f 189//131 190//131 192//131
f 192//131 164//131 168//131
f 168//131 172//131 176//131
f 178//131 180//131 184//131
f 186//131 188//131 192//131
f 192//131 168//131 176//131
f 148//132 149//132 180//132
f 183//97 151//97 184//97
f 142//133 143//133 174//133
f 165//134 133//134 166//134
f 184//35 152//35 185//35
f 146//69 147//69 178//69
f 137//70 138//70 169//70
f 187//135 155//135 188//135
f 163//136 131//136 164//136
f 188//72 156//72 189//72
f 191//73 159//73 192//73
f 141//76 142//76 173//76
f 164//74 132//74 165//74
f 150//137 151//137 182//137
f 135//77 136//77 167//77
f 192//78 160//78 161//78
f 136//81 137//81 168//81
f 186//79 154//79 187//79
f 145//80 146//80 177//80
f 162//83 130//83 163//83
f 139//82 140//82 171//82
f 190//84 158//84 191//84
f 149//85 150//85 181//85
f 140//138 141//138 172//138
f 143//87 144//87 175//87
f 166//88 134//88 167//88
f 185//90 153//90 186//90
f 144//89 145//89 176//89
f 161//92 129//92 162//92
f 147//93 148//93 179//93
f 138//91 139//91 170//91
f 194//139 193//139 195//139
f 62//140 64//140 193//140
f 64//18 63//18 196//18
f 194//141 61//141 193//141
f 198//142 197//142 199//142
f 37//143 35//143 199//143
f 197//144 36//144 200//144
f 200//141 38//141 199//141
