# Blender v2.76 (sub 0) OBJ File: ''
# www.blender.org
mtllib house.mtl
o Cube_Cube.001
v -2.158080 0.323557 8.964850
v -2.158080 11.783968 8.964850
v -2.158080 0.323557 -8.605374
v -2.158080 11.783968 -8.605374
v 2.158080 0.323557 8.964851
v 2.158080 11.783968 8.181808
v 2.158080 0.323557 -8.605375
v 2.158080 11.783968 -9.388419
v 0.000000 15.244497 -0.603306
vt 0.053644 0.010562
vt 0.993204 -0.012014
vt 0.987560 0.940596
vt 0.048000 0.963172
vt 0.987305 0.021330
vt 0.992949 1.000034
vt 0.024980 0.971524
vt 0.019524 -0.007035
vt 0.990037 0.949281
vt 0.028087 0.963485
vt 0.039375 0.010562
vt 1.001325 -0.003642
vt 0.985012 0.954094
vt 0.046727 0.964940
vt 0.058052 0.023618
vt 0.996250 0.012460
vt 0.039818 0.964569
vt 0.039818 0.011959
vt 0.989305 0.023248
vt 0.989305 0.975857
vt 0.963647 0.029121
vt 0.963647 0.343948
vt 0.751990 0.186534
vt 0.074115 0.327760
vt 0.074115 0.012932
vt 0.285772 0.184377
vt 0.133432 0.038783
vt 0.541173 0.038783
vt 0.339340 0.228684
vt 0.755648 0.226496
vt 0.347908 0.226496
vt 0.549915 0.048600
vn -1.000000 0.000000 0.000000
vn -0.090300 -0.034000 -0.995300
vn 1.000000 0.000000 0.000000
vn 0.090300 0.034000 0.995300
vn 0.000000 -1.000000 0.000000
vn 0.848500 0.529200 0.000000
vn -0.848500 0.529200 0.000000
vn 0.063900 0.933800 0.352100
vn -0.069000 0.922300 -0.380300
usemtl Material.001
s off
f 2/1/1 4/2/1 3/3/1 1/4/1
f 4/5/2 8/6/2 7/7/2 3/8/2
f 8/9/3 6/10/3 5/11/3 7/12/3
f 6/13/4 2/14/4 1/15/4 5/16/4
f 1/17/5 3/18/5 7/19/5 5/20/5
f 6/21/6 8/22/6 9/23/6
f 4/24/7 2/25/7 9/26/7
f 2/27/8 6/28/8 9/29/8
f 8/30/9 4/31/9 9/32/9
